PathFileType	4	(X/Y/Z)	Patient4_TMGait_0pt4_03_right_12.trc.trc
DataRate	CameraRate	NumFrames	NumMarkers	Units	OrigDataRate	OrigDataStartFrame	OrigNumFrames
72.538860103627	72.538860103627	4	33	mm	72.538860103627	1	       141
Frame#	Time	Sacral			L.Shoulder			Chest			R.Shoulder			Neck			R.ASIS			L.ASIS			R.Thigh.Superior			R.Thigh.Lateral			R.Thigh.Inferior			R.Patella			L.Thigh.Superior			L.Thigh.Lateral			L.Thigh.Inferior			L.Patella			L.Shank.Superior			L.Shank.Lateral			L.Shank.Inferior			R.Shank.Superior			R.Shank.Lateral			R.Shank.Inferior			R.Heel			R.Midfoot.Superior			R.Midfoot.Lateral			R.Toe			L.Heel			L.Midfoot.Lateral			L.Midfoot.Superior			L.Toe			L.Elbow			L.Wrist			R.Elbow			R.Wrist			
		X1	Y1	Z1	X2	Y2	Z2	X3	Y3	Z3	X4	Y4	Z4	X5	Y5	Z5	X6	Y6	Z6	X7	Y7	Z7	X8	Y8	Z8	X9	Y9	Z9	X10	Y10	Z10	X11	Y11	Z11	X12	Y12	Z12	X13	Y13	Z13	X14	Y14	Z14	X15	Y15	Z15	X16	Y16	Z16	X17	Y17	Z17	X18	Y18	Z18	X19	Y19	Z19	X20	Y20	Z20	X21	Y21	Z21	X22	Y22	Z22	X23	Y23	Z23	X24	Y24	Z24	X25	Y25	Z25	X26	Y26	Z26	X27	Y27	Z27	X28	Y28	Z28	X29	Y29	Z29	X30	Y30	Z30	X31	Y31	Z31	X32	Y32	Z32	X33	Y33	Z33	

1	14.730000000000	802.007165479745	1012.237945989784	425.117528050694	990.911909818575	1434.645257005285	234.296634892803	1088.904675112241	1370.157468566246	399.939062768865	1001.404137374849	1446.302884057846	571.154414075297	967.388582654566	1501.003762225291	390.445855844770	1028.246818655966	951.597863773304	546.841704040795	1019.854124082445	963.557020923512	272.817542866044	1099.976358844663	769.644036996953	528.972052785091	1047.711554192328	653.303175423621	604.621217987008	1137.531709135964	604.898347826981	532.459472833540	1146.158604692504	493.748116034216	558.563786896556	1067.850065518109	753.312456123330	298.426066219455	976.769569861635	637.756373645695	241.039402440853	1063.124636360916	560.728248836657	301.753670178842	1063.223282582762	492.137947256918	312.057224301594	1037.695048452790	419.672016923073	304.948392758747	948.574570736742	304.507872308451	255.845416289354	1001.123320576207	194.198059743798	327.378165200619	1066.661980103988	423.120468095769	566.956270832527	943.788044811172	392.340167473035	630.017697452321	922.743440963684	283.122072806711	584.044915370837	718.644672064993	235.349686357841	562.038197745761	881.705359267882	160.593827276203	596.811299831898	772.451524025510	165.957488059928	630.785017566481	938.207320334231	41.967847104020	616.618382859613	874.006112369501	38.706603809286	372.503237360644	946.020931429720	35.095727833169	290.048578477861	1030.374765138498	96.429408718883	316.061735306067	1158.589491236873	41.615989216223	285.077716779956	1003.067054618976	1093.718333761971	88.940053828291	1153.829493156277	876.723567339029	83.887998388924	978.855995963627	1100.572875030175	700.318075999861	1128.772152022428	886.633464919945	708.432696149554	
2	14.743785714286	800.638759879875	1012.972648536480	422.699279369816	992.463973011194	1434.957833228515	232.791856507531	1088.714646199216	1370.189584022005	399.323056338388	999.864650190835	1446.636524939491	569.689818801117	967.663355075809	1501.349486574007	388.865860669235	1026.166134637486	952.735575720902	546.293534503421	1019.776272049187	963.839556742711	272.048167678196	1100.464936732344	773.569899343875	527.756667579721	1051.135171562863	656.486633070346	603.862150465783	1141.424159095658	609.733514942917	531.241472433223	1152.907819681941	499.210308472835	557.572310226365	1065.547882583975	752.518975149707	299.139080745398	974.130694220504	637.746162482097	240.654827556534	1058.967506731192	560.095277318838	302.377223245366	1058.201892593038	491.628551822107	312.745377400301	1032.696028989413	419.424380629369	305.221562400763	943.583331679282	304.408997264743	255.711590519981	995.540079618839	194.061144192845	327.615254232460	1075.568632521820	426.506177202135	566.265924855739	953.987535528367	391.688328741799	629.505164378209	936.556879228727	281.690969306074	583.692201697252	734.504816099186	226.573216772356	561.909736661808	899.966516118386	158.233974781875	596.842095690883	790.776205545777	159.825131760226	631.024869634913	960.742348683866	42.087144876451	617.524523488070	868.031665433851	38.648931419344	372.464686584319	940.104046692310	35.053197395350	290.026324983499	1024.408677844966	96.416998315048	316.134876101089	1152.667557867165	41.787625714992	285.103674714451	1009.865215700971	1095.391545000273	86.039667168037	1169.358909355333	885.584545549445	81.517653706638	970.462584110608	1101.108073727294	697.437863394385	1107.394487012267	879.960687501303	707.006194604693	
3	14.757571428571	799.292012474574	1013.675241469196	420.308355366906	994.035921693462	1435.250321783712	231.338023706788	1088.540348883787	1370.200353146794	398.750361593351	998.343253543135	1446.939124816901	568.265433523577	967.952077907697	1501.672193909509	387.331096746381	1024.084366326806	953.824010151482	545.779928742216	1019.687270775751	964.080033986086	271.325249663776	1100.882791221001	777.379090141642	526.605499532759	1054.388861665597	659.569040662582	603.136728797467	1145.099487025836	614.404478711495	530.061162561027	1159.376830405372	504.574964019132	556.639009892649	1063.232623126815	751.730732162125	299.869688341345	971.493901410235	637.729426056462	240.254440622882	1054.827877288065	559.460300323042	302.965988412706	1053.210777134303	491.118352204214	313.383835109194	1027.723977016402	419.170601663420	305.462135319256	938.609434052317	304.306325250440	255.564066645702	989.975977285228	193.922792455355	327.829831213273	1084.286181910832	429.763762181188	565.632108630779	964.103495164272	390.737253582235	629.043736521616	950.497206645643	279.974313911067	583.416965022732	750.668765149003	217.205124931123	561.851720058638	918.536578447105	155.585665594301	596.966752163394	809.464304190721	153.238829348088	631.356894277102	983.733333767218	42.082721482487	618.529967901693	862.082869758442	38.592499714886	372.429364192031	934.212581087189	35.009622507782	290.004706824932	1018.470761967996	96.403290820683	316.203961927781	1146.773663392600	41.946395046529	285.130274651401	1016.523350562541	1097.023936341983	83.233559132152	1184.688662980833	894.503409367566	79.287541179047	962.125472676991	1101.633427399504	694.577823205151	1086.175244063451	873.522802592366	705.506839867512	
4	14.771357142857	798.003569377546	1014.314843797969	417.995895997914	995.631502955531	1435.500342181737	229.994707850416	1088.402846349792	1370.166813977662	398.264249934724	996.881533279934	1447.181424593897	566.932881509592	968.269496135329	1501.947204402318	385.897017876093	1022.027311024084	954.802073942051	545.330162545069	1019.578288871630	964.242163837945	270.688902553125	1101.128731454664	780.890591427627	525.586762872195	1057.232203144683	662.407104660684	602.487695867621	1148.280128994473	618.686155197823	528.973157454168	1165.209318047724	509.685098690578	555.812770546624	1060.914015910891	750.952193761912	300.608522613057	968.866526123717	637.702680283537	239.829774546076	1050.735550020283	558.823637571740	303.481020985456	1048.294111002161	490.610344992869	313.924376359168	1022.820248701850	418.907749297446	305.640302449645	933.683695366584	304.198146292112	255.392126042370	984.470187576937	193.780348347924	328.000879661112	1092.551502196454	432.767828374151	565.106326265899	974.014391345925	389.256378952589	628.686828440359	964.603619018873	277.814587702301	583.279402397767	767.416127350818	206.906917117092	561.912279383126	937.617520036363	152.531773203125	597.247619275441	828.803167351858	145.968797562930	631.837282613120	1007.447385037013	41.996761443574	619.691112254465	856.207483434377	38.539136860805	372.398780740135	928.391889769478	34.964821634210	289.984152681537	1012.608971992296	96.386667669801	316.264557149913	1140.954359429230	42.079268782766	285.157750875389	1022.883956643093	1098.559416090261	80.638895796118	1199.532335041658	903.465265239206	77.350998553854	953.937732274371	1102.151662959701	691.779445910009	1065.399785056976	867.574902529592	703.894213627061	
